<svg id="Livello_2" xmlns="http://www.w3.org/2000/svg" viewBox="0 0 690.54 152.93"><defs><style>.cls-1{fill:#000000}.cls-2{fill:#000000}</style></defs><g id="Livello_1-2"><path id="stripe" class="cls-1" d="M535.18.3h155.37v11.74H535.18z"/><path class="cls-1" d="M535.18 23.78h155.37v11.74H535.18zM535.18 47.26h155.37V59H535.18zM535.18 70.74h155.37v11.74H535.18zM431.6 94.23h258.94v11.74H431.6zM431.6 117.71h258.94v11.74H431.6zM431.6 141.19h258.94v11.74H431.6z"/><path class="cls-2" d="M431.6.3v82.18h103.58V.3H431.6Zm11.33 77.86-2.47-2.01-2.47 2.01.94-3.25-2.47-2.01h3.05l.94-3.25.94 3.25h3.05l-2.47 2.01.94 3.25Zm-.94-19.73.94 3.25-2.47-2.01-2.47 2.01.94-3.25-2.47-2.01h3.05l.94-3.25.94 3.25h3.05l-2.47 2.01Zm0-16.48.94 3.25-2.47-2.01-2.47 2.01.94-3.25-2.47-2.01h3.05l.94-3.25.94 3.25h3.05l-2.47 2.01Zm0-16.48.94 3.25-2.47-2.01-2.47 2.01.94-3.25-2.47-2.01h3.05l.94-3.25.94 3.25h3.05l-2.47 2.01Zm0-16.48.94 3.25-2.47-2.01-2.47 2.01.94-3.25-2.47-2.01h3.05l.94-3.25.94 3.25h3.05l-2.47 2.01Zm9.53 60.94-2.47-2.01-2.47 2.01.94-3.25-2.47-2.01h3.05l.94-3.25.94 3.25h3.05l-2.47 2.01.94 3.25Zm-.94-19.73.94 3.25-2.47-2.01-2.47 2.01.94-3.25-2.47-2.01h3.05l.94-3.25.94 3.25h3.05l-2.47 2.01Zm0-16.48.94 3.25-2.47-2.01-2.47 2.01.94-3.25-2.47-2.01h3.05l.94-3.25.94 3.25h3.05l-2.47 2.01Zm0-16.48.94 3.25-2.47-2.01-2.47 2.01.94-3.25-2.47-2.01h3.05l.94-3.25.94 3.25h3.05l-2.47 2.01Zm9.53 60.94-2.47-2.01-2.47 2.01.94-3.25-2.47-2.01h3.05l.94-3.25.94 3.25h3.05l-2.47 2.01.94 3.25Zm-.94-19.73.94 3.25-2.47-2.01-2.47 2.01.94-3.25-2.47-2.01h3.05l.94-3.25.94 3.25h3.05l-2.47 2.01Zm0-16.48.94 3.25-2.47-2.01-2.47 2.01.94-3.25-2.47-2.01h3.05l.94-3.25.94 3.25h3.05l-2.47 2.01Zm0-16.48.94 3.25-2.47-2.01-2.47 2.01.94-3.25-2.47-2.01h3.05l.94-3.25.94 3.25h3.05l-2.47 2.01Zm0-16.48.94 3.25-2.47-2.01-2.47 2.01.94-3.25L453.64 7h3.05l.94-3.25.94 3.25h3.05l-2.47 2.01Zm9.53 60.94-2.47-2.01-2.47 2.01.94-3.25-2.47-2.01h3.05l.94-3.25.94 3.25h3.05l-2.47 2.01.94 3.25Zm-.94-19.73.94 3.25-2.47-2.01-2.47 2.01.94-3.25-2.47-2.01h3.05l.94-3.25.94 3.25h3.05l-2.47 2.01Zm0-16.48.94 3.25-2.47-2.01-2.47 2.01.94-3.25-2.47-2.01h3.05l.94-3.25.94 3.25h3.05l-2.47 2.01Zm0-16.48.94 3.25-2.47-2.01-2.47 2.01.94-3.25-2.47-2.01h3.05l.94-3.25.94 3.25h3.05l-2.47 2.01Zm9.53 60.94-2.47-2.01-2.47 2.01.94-3.25-2.47-2.01h3.05l.94-3.25.94 3.25h3.05l-2.47 2.01.94 3.25Zm-.94-19.73.94 3.25-2.47-2.01-2.47 2.01.94-3.25-2.47-2.01h3.05l.94-3.25.94 3.25h3.05l-2.47 2.01Zm0-16.48.94 3.25-2.47-2.01-2.47 2.01.94-3.25-2.47-2.01h3.05l.94-3.25.94 3.25h3.05l-2.47 2.01Zm0-16.48.94 3.25-2.47-2.01-2.47 2.01.94-3.25-2.47-2.01h3.05l.94-3.25.94 3.25h3.05l-2.47 2.01Zm0-16.48.94 3.25-2.47-2.01-2.47 2.01.94-3.25-2.47-2.01h3.05l.94-3.25.94 3.25h3.05l-2.47 2.01Zm9.53 60.94-2.47-2.01-2.47 2.01.94-3.25-2.47-2.01h3.05l.94-3.25.94 3.25h3.05l-2.47 2.01.94 3.25Zm-.94-19.73.94 3.25-2.47-2.01-2.47 2.01.94-3.25-2.47-2.01h3.05l.94-3.25.94 3.25h3.05l-2.47 2.01Zm0-16.48.94 3.25-2.47-2.01-2.47 2.01.94-3.25-2.47-2.01h3.05l.94-3.25.94 3.25h3.05l-2.47 2.01Zm0-16.48.94 3.25-2.47-2.01-2.47 2.01.94-3.25-2.47-2.01h3.05l.94-3.25.94 3.25h3.05l-2.47 2.01Zm9.53 60.94L492 76.21l-2.47 2.01.94-3.25-2.47-2.01h3.05l.94-3.25.94 3.25h3.05l-2.47 2.01.94 3.25Zm-.94-19.73.94 3.25-2.47-2.01-2.47 2.01.94-3.25-2.47-2.01h3.05l.94-3.25.94 3.25h3.05l-2.47 2.01Zm0-16.48.94 3.25-2.47-2.01-2.47 2.01.94-3.25L488 40h3.05l.94-3.25.94 3.25h3.05l-2.47 2.01Zm0-16.48.94 3.25-2.47-2.01-2.47 2.01.94-3.25-2.47-2.01h3.05l.94-3.25.94 3.25h3.05l-2.47 2.01Zm0-16.48.94 3.25-2.47-2.01-2.47 2.01.94-3.25L488 7.04h3.05l.94-3.25.94 3.25h3.05l-2.47 2.01Zm9.53 60.94-2.47-2.01-2.47 2.01.94-3.25-2.47-2.01h3.05l.94-3.25.94 3.25h3.05l-2.47 2.01.94 3.25Zm-.94-19.73.94 3.25-2.47-2.01-2.47 2.01.94-3.25-2.47-2.01h3.05l.94-3.25.94 3.25h3.05l-2.47 2.01Zm0-16.48.94 3.25-2.47-2.01-2.47 2.01.94-3.25-2.47-2.01h3.05l.94-3.25.94 3.25h3.05l-2.47 2.01Zm0-16.48.94 3.25-2.47-2.01-2.47 2.01.94-3.25-2.47-2.01h3.05l.94-3.25.94 3.25h3.05l-2.47 2.01Zm9.53 60.94-2.47-2.01-2.47 2.01.94-3.25-2.47-2.01h3.05l.94-3.25.94 3.25h3.05l-2.47 2.01.94 3.25Zm-.94-19.73.94 3.25-2.47-2.01-2.47 2.01.94-3.25-2.47-2.01h3.05l.94-3.25.94 3.25h3.05l-2.47 2.01Zm0-16.48.94 3.25-2.47-2.01-2.47 2.01.94-3.25-2.47-2.01h3.05l.94-3.25.94 3.25h3.05l-2.47 2.01Zm0-16.48.94 3.25-2.47-2.01-2.47 2.01.94-3.25-2.47-2.01h3.05l.94-3.25.94 3.25h3.05l-2.47 2.01Zm0-16.48.94 3.25-2.47-2.01-2.47 2.01.94-3.25-2.47-2.01h3.05l.94-3.25.94 3.25h3.05l-2.47 2.01Zm9.53 60.94L517.77 68l-2.47 2.01.94-3.25-2.47-2.01h3.05l.94-3.25.94 3.25h3.05l-2.47 2.01.94 3.25Zm-.94-19.73.94 3.25-2.47-2.01-2.47 2.01.94-3.25-2.47-2.01h3.05l.94-3.25.94 3.25h3.05l-2.47 2.01Zm0-16.48.94 3.25-2.47-2.01-2.47 2.01.94-3.25-2.47-2.01h3.05l.94-3.25.94 3.25h3.05l-2.47 2.01Zm0-16.48.94 3.25-2.47-2.01-2.47 2.01.94-3.25-2.47-2.01h3.05l.94-3.25.94 3.25h3.05l-2.47 2.01Zm9.53 60.94-2.47-2.01-2.47 2.01.94-3.25-2.47-2.01h3.05l.94-3.25.94 3.25h3.05l-2.47 2.01.94 3.25Zm-.94-19.73.94 3.25-2.47-2.01-2.47 2.01.94-3.25-2.47-2.01h3.05l.94-3.25.94 3.25h3.05l-2.47 2.01Zm0-16.48.94 3.25-2.47-2.01-2.47 2.01.94-3.25-2.47-2.01h3.05l.94-3.25.94 3.25h3.05l-2.47 2.01Zm0-16.48.94 3.25-2.47-2.01-2.47 2.01.94-3.25-2.47-2.01h3.05l.94-3.25.94 3.25h3.05l-2.47 2.01Zm0-16.48.94 3.25-2.47-2.01-2.47 2.01.94-3.25-2.47-2.01h3.05l.94-3.25.94 3.25h3.05l-2.47 2.01Z"/></g><g id="Livello_2-2"><path class="cls-2" d="M26.54 110.53 88.23 0h19.82v110.53H86.5V43.02L50 110.53H26.54zM188.24 0v19.33h22.09v91.2h19.4v-91.2h20.9V0h-62.39zM339.4 0l23.77 43.8L387.26 0h22l-60.93 110.53h-23.64l26.33-47.59L316.35 0h23.05z"/><path class="cls-2" d="M188.39 67.74 188.23 0h-19.41l-.16 71.43c-.83 10.28-6.34 16.84-14.41 18.04-11.27 1.67-18.9-5.04-19.55-17.78v-.42L134.54 0h-19.41l-.16 73.06h.06c-.02.65-.03 1.3-.05 1.95-.49 13.69 13.09 31.56 28.1 34.62 18.44 3.75 33.72-4.23 41.62-21.11 2.77-5.91 3.55-12.06 3.64-18.39h.04v-2.38ZM292.81 44.01c-.36.03-.72.11-1.09.11h1.1s0-.05-.01-.11ZM292.82 19.29h-1.1c.37 0 .72.08 1.09.11 0-.04 0-.07.01-.11Z"/><path class="cls-2" d="M300.57 0h-49.95v110.53h20.8V62.94l28.15 47.59h24.12l-28.5-47.62C343.95 53.53 327.32 0 300.57 0Zm-24.06 44.12h-6.08V19.29h25.03s0 .07-.01.11c6.31.56 11.33 5.85 11.33 12.3s-5.01 11.74-11.33 12.3c0 .06.01.11.01.11h-18.95ZM205.59 117.85h6.96c1.49 0 2.92.15 4.28.43 1.36.29 2.56.78 3.61 1.46 1.05.69 1.89 1.6 2.51 2.74.63 1.14.94 2.55.94 4.23 0 1.77-.34 3.23-1.01 4.39-.67 1.16-1.53 2.07-2.58 2.74-1.05.67-2.2 1.14-3.45 1.42-1.25.27-2.44.41-3.57.41h-3.85v15.44h-3.84v-33.28Zm3.84 14.27h3.85c1.92 0 3.48-.43 4.69-1.3 1.2-.87 1.81-2.22 1.81-4.05s-.6-3.18-1.81-4.05c-1.21-.87-2.77-1.3-4.69-1.3h-3.85v10.7ZM285.92 117.85h6.96c1.49 0 2.92.15 4.28.43 1.36.29 2.56.78 3.61 1.46 1.05.69 1.89 1.6 2.51 2.74.63 1.14.94 2.55.94 4.23 0 1.77-.34 3.23-1.01 4.39-.67 1.16-1.53 2.07-2.58 2.74-1.05.67-2.2 1.14-3.45 1.42-1.25.27-2.44.41-3.57.41h-3.85v15.44h-3.84v-33.28Zm3.84 14.27h3.85c1.92 0 3.48-.43 4.69-1.3 1.2-.87 1.81-2.22 1.81-4.05s-.6-3.18-1.81-4.05c-1.21-.87-2.77-1.3-4.69-1.3h-3.85v10.7ZM61.66 143.58l-.37-.36-.34.39a11.674 11.674 0 0 1-3.71 2.83c-2.84 1.38-6.34 1.38-9.13-.04-1.42-.72-2.68-1.69-3.73-2.9-1.06-1.21-1.9-2.61-2.51-4.17-.6-1.56-.91-3.21-.91-4.92s.31-3.34.91-4.87c.6-1.53 1.45-2.9 2.5-4.06 1.05-1.16 2.31-2.1 3.73-2.79 2.78-1.35 6.22-1.4 9.09 0 1.43.7 2.68 1.6 3.72 2.67l.34.35.35-.33c.51-.48 1.67-1.68 2.15-2.26l.28-.34-.31-.31a15.435 15.435 0 0 0-4.96-3.36c-1.89-.8-3.93-1.21-6.07-1.21s-4.35.44-6.27 1.31c-1.92.86-3.62 2.05-5.04 3.54-1.42 1.49-2.55 3.25-3.36 5.25s-1.21 4.16-1.21 6.43.41 4.44 1.21 6.43c.81 2 1.94 3.77 3.36 5.25s3.12 2.68 5.04 3.54c1.93.87 4.03 1.31 6.27 1.31s4.17-.4 6.04-1.19a15.3 15.3 0 0 0 4.94-3.34l.31-.32-.29-.34c-.39-.45-1.66-1.78-2.04-2.16ZM84.81 117.87H71.94v3.92h4.49v29.35h3.9v-29.35h4.48v-3.92zM94.55 117.87h3.9v33.2h-3.9zM139.04 128.05a16.6 16.6 0 0 0-3.44-5.3c-1.46-1.5-3.19-2.7-5.16-3.57-1.97-.87-4.13-1.32-6.41-1.32s-4.44.44-6.41 1.32c-1.97.87-3.7 2.07-5.16 3.57s-2.61 3.28-3.44 5.3c-.82 2.01-1.24 4.2-1.24 6.49s.42 4.47 1.24 6.49c.83 2.02 1.98 3.8 3.44 5.29 1.45 1.5 3.19 2.7 5.16 3.57 1.97.87 4.12 1.32 6.41 1.32s4.44-.44 6.41-1.32c1.97-.87 3.7-2.07 5.16-3.57s2.61-3.28 3.44-5.3c.83-2.02 1.24-4.2 1.24-6.49s-.42-4.47-1.24-6.49Zm-2.98 6.49c0 1.72-.31 3.39-.93 4.96-.62 1.58-1.48 2.99-2.57 4.21-1.08 1.22-2.37 2.2-3.83 2.93-2.89 1.45-6.51 1.45-9.4 0-1.46-.73-2.75-1.71-3.83-2.93a14.006 14.006 0 0 1-2.57-4.21c-.62-1.57-.93-3.24-.93-4.96s.31-3.37.93-4.91c.62-1.54 1.48-2.92 2.56-4.1 1.08-1.17 2.37-2.12 3.83-2.82 1.44-.69 3.03-1.04 4.71-1.04s3.26.35 4.7 1.04c1.46.7 2.75 1.65 3.83 2.82s1.94 2.55 2.56 4.1c.62 1.54.93 3.2.93 4.91ZM279.9 128.05a16.6 16.6 0 0 0-3.44-5.3c-1.46-1.5-3.19-2.7-5.16-3.57-1.97-.87-4.13-1.32-6.41-1.32s-4.44.44-6.41 1.32c-1.97.87-3.7 2.07-5.16 3.57s-2.61 3.28-3.44 5.29-1.24 4.2-1.24 6.49.42 4.47 1.24 6.49c.83 2.02 1.98 3.8 3.44 5.29 1.45 1.5 3.19 2.7 5.16 3.57 1.97.87 4.12 1.32 6.41 1.32s4.44-.44 6.41-1.32c1.97-.87 3.7-2.07 5.16-3.57s2.62-3.28 3.44-5.3c.83-2.02 1.24-4.2 1.24-6.49s-.42-4.47-1.24-6.49Zm-2.98 6.49c0 1.72-.31 3.39-.93 4.96-.62 1.57-1.48 2.99-2.57 4.21-1.08 1.22-2.37 2.2-3.83 2.93-2.89 1.45-6.51 1.45-9.4 0-1.46-.73-2.75-1.71-3.83-2.93a13.884 13.884 0 0 1-2.57-4.21c-.62-1.57-.93-3.24-.93-4.96s.31-3.37.93-4.91c.62-1.55 1.48-2.92 2.56-4.1 1.08-1.17 2.37-2.12 3.83-2.82 1.44-.69 3.03-1.04 4.7-1.04s3.26.35 4.71 1.04c1.46.7 2.75 1.65 3.83 2.82 1.08 1.18 1.94 2.55 2.56 4.1.62 1.54.93 3.19.93 4.91ZM245.08 121.85v-3.9h-14.15v32.94h14.15v-3.9h-10.25v-10.62h8.06v-3.9h-8.06v-10.62h10.25zM315.04 117.86h-3.92v33.2h14.15v-3.91h-10.24l.01-29.29zM347.18 121.89v-4.02h-14.16v33.22h14.16v-4.07h-10.25v-10.61h8.06v-3.91h-8.06v-10.61h10.25z"/><g><path class="cls-2" d="M387.25 115.99c-9.84 0-17.82 7.98-17.82 17.82s7.98 17.82 17.82 17.82 17.82-7.98 17.82-17.82-7.98-17.82-17.82-17.82Zm0 33.68c-8.76 0-15.86-7.1-15.86-15.86s7.1-15.86 15.86-15.86 15.86 7.1 15.86 15.86-7.1 15.86-15.86 15.86Z"/><path class="cls-2" d="M393.5 129.7c0-4-2.81-5.41-6.72-5.41h-6.02v19.22h2.44v-8.12h3.47l4.63 8.12h2.77l-4.9-8.4c2.61-.64 4.32-2.42 4.32-5.41Zm-10.3-3.42h3.22c2.99 0 4.64.9 4.64 3.42s-1.65 3.7-4.64 3.7h-3.22v-7.13Z"/></g><path class="cls-2" d="M146.7 117.8h4.85l18.75 27.43h.09V117.8h3.84l-.08 33.31h-3.96l-19.56-27.82h-.09l-.04 27.79h-3.84l.04-33.28ZM28.32 118.24v-.37H23.9L0 151.11h4.67l8.46-11.67h11.3v11.67h3.91v-32.86Zm-12.38 17.29 8.46-11.67v11.67h-8.46Z"/></g></svg>