<svg aria-labelledby="carhartt-logo-header" xmlns="http://www.w3.org/2000/svg" width="145" height="26" viewBox="0 0 337.5 72.6" style="enable-background:new 0 0 337.5 72.6" xml:space="preserve"><path style="fill-rule:evenodd;clip-rule:evenodd" d="m67.6 59.8-4.1 12.4h-2.7l-3.1-10.4-3.1 10.4H52l-4.1-12.4h2.3l3.1 10.4 3.1-10.4H59l3.1 10.4 3.2-10.4zM85.3 66c0 2-.8 3.7-2.5 4.9-1.5 1.1-3.3 1.6-5.5 1.6s-4-.6-5.5-1.7c-1.7-1.3-2.5-2.9-2.5-4.9 0-2 .8-3.6 2.5-4.9 1.5-1.1 3.3-1.7 5.5-1.7s4 .6 5.4 1.7c1.7 1.3 2.6 3 2.6 5zm-2.2 0c0-1.5-.6-2.6-1.9-3.5-1.1-.8-2.4-1.2-4-1.2-1.7 0-3.1.4-4.2 1.3s-1.6 2-1.6 3.4.5 2.5 1.6 3.4c1.1.9 2.5 1.3 4.3 1.3 1.8 0 3.2-.4 4.2-1.3 1.1-.9 1.6-2 1.6-3.4zM102.9 72.2h-2.4l-3.4-4.7h-6.3v4.7h-2.1V59.8h9.8c1.3 0 2.3.4 3.1 1.1.7.7 1.1 1.6 1.1 2.8 0 1.1-.3 1.9-.9 2.5-.6.6-1.3 1-2.3 1.1l3.4 4.9zm-4.6-6.6c1.6 0 2.4-.6 2.4-1.9 0-1.4-.9-2-2.6-2h-7.2v3.9h7.4zM120.5 72.2h-2.7l-6-6.5-3.7 2.7v3.8h-2V59.8h2v6.4l8.7-6.4h3l-6.4 4.7zM127.7 59.8h2.1v12.4h-2.1zM147.8 72.2h-2.5L135.8 62v10.2h-2.1V59.8h2.6l9.5 10.2V59.8h2zM167 59.8c1.3 0 2.3.4 3 1.1.7.7 1.1 1.6 1.1 2.8 0 1.2-.4 2.2-1.2 2.8-.8.7-1.9 1-3.4 1h-7.4v4.7H157V59.8h10zm-.4 5.8c1.6 0 2.4-.6 2.4-1.9 0-1.4-.8-2-2.5-2h-7.3v3.9h7.4zM187.5 72.2h-2.4l-3.4-4.7h-6.3v4.7h-2.1V59.8h9.8c1.3 0 2.3.4 3.1 1.1.7.7 1.1 1.6 1.1 2.8 0 1.1-.3 1.9-.9 2.5-.6.6-1.3 1-2.3 1.1l3.4 4.9zm-4.6-6.6c1.6 0 2.4-.6 2.4-1.9 0-1.4-.9-2-2.6-2h-7.2v3.9h7.4zM206 66c0 2-.8 3.7-2.5 4.9-1.5 1.1-3.3 1.6-5.5 1.6s-4-.6-5.5-1.7c-1.7-1.3-2.5-2.9-2.5-4.9 0-2 .8-3.6 2.5-4.9 1.5-1.1 3.3-1.7 5.5-1.7s4 .6 5.4 1.7c1.8 1.3 2.6 3 2.6 5zm-2.1 0c0-1.5-.6-2.6-1.9-3.5-1.1-.8-2.4-1.2-4-1.2-1.7 0-3.1.4-4.2 1.3s-1.6 2-1.6 3.4.5 2.5 1.6 3.4c1.1.9 2.5 1.3 4.2 1.3 1.8 0 3.2-.4 4.2-1.3 1.1-.9 1.7-2 1.7-3.4zM224.7 65.8c0 2-.7 3.7-2.2 4.9-1.4 1.2-3.4 1.9-5.7 1.9-2.2 0-4-.6-5.5-1.7-1.7-1.3-2.5-2.9-2.5-4.9 0-2 .8-3.6 2.5-4.9 1.5-1.1 3.3-1.7 5.6-1.7 2.7 0 5 1 6.7 3l-1.9 1c-1.3-1.4-2.9-2.1-5-2.1-1.6 0-2.9.4-4 1.2-1.2.9-1.9 2.1-1.9 3.5s.5 2.5 1.6 3.4c1.1.9 2.5 1.3 4.2 1.3 2.7 0 4.5-1.1 5.3-3.2h-5.8v-1.9h8.3v.2zM242.3 72.2h-2.4l-3.4-4.7h-6.3v4.7h-2.1V59.8h9.8c1.3 0 2.3.4 3.1 1.1.7.7 1.1 1.6 1.1 2.8 0 1.1-.3 1.9-.9 2.5-.6.6-1.3 1-2.3 1.1l3.4 4.9zm-4.6-6.6c1.6 0 2.4-.6 2.4-1.9 0-1.4-.9-2-2.6-2h-7.2v3.9h7.4zM258.5 72.2h-13V59.8H258v1.9h-10.4v3.1h7.2v1.9h-7.2v3.6h10.9zM271.9 62.7c-1.8-.9-3.7-1.4-5.6-1.4-1.3 0-2.2.2-2.9.4-.7.3-1 .7-1 1.2s.4.9 1.1 1.2c.5.2 1.4.3 2.5.4 1.7.1 2.8.2 3.4.3 1.6.2 2.7.6 3.4 1.2.7.6 1.1 1.4 1.1 2.4 0 1.3-.6 2.3-1.7 3.1-1.2.7-2.8 1.1-5 1.1-3.2 0-5.6-.7-7.4-2.1l1.1-1.5c1.9 1.2 4 1.8 6.3 1.8 1.5 0 2.6-.2 3.4-.6.8-.4 1.1-.9 1.1-1.6 0-.8-.5-1.3-1.5-1.6-.5-.1-1.9-.3-4.3-.4-2-.1-3.5-.4-4.3-.8-1-.5-1.4-1.3-1.4-2.4 0-1.2.5-2.1 1.6-2.8 1.1-.7 2.6-1 4.6-1 2.7 0 4.9.6 6.7 1.8l-1.2 1.3zM287.6 62.7c-1.8-.9-3.7-1.4-5.6-1.4-1.3 0-2.2.2-2.9.4-.7.3-1 .7-1 1.2s.4.9 1.1 1.2c.5.2 1.4.3 2.5.4 1.7.1 2.8.2 3.4.3 1.6.2 2.7.6 3.4 1.2.7.6 1.1 1.4 1.1 2.4 0 1.3-.6 2.3-1.7 3.1-1.2.7-2.8 1.1-5 1.1-3.2 0-5.6-.7-7.4-2.1l1.1-1.5c1.9 1.2 4 1.8 6.3 1.8 1.5 0 2.6-.2 3.4-.6.8-.4 1.1-.9 1.1-1.6 0-.8-.5-1.3-1.5-1.6-.5-.1-1.9-.3-4.3-.4-2-.1-3.5-.4-4.3-.8-1-.5-1.4-1.3-1.4-2.4 0-1.2.5-2.1 1.6-2.8 1.1-.7 2.6-1 4.6-1 2.7 0 4.9.6 6.7 1.8l-1.2 1.3zM331.9 38.9h1c.5 0 .8.2.8.6 0 .5-.4.7-1.1.7h-.8v-1.3zm-.8 3.9h.7v-2h.5l1.3 2h.9l-1.3-2c.6-.1 1.2-.4 1.2-1.3s-.5-1.3-1.6-1.3h-1.7v4.6zm4.6-2.3c0 1.8-1.4 3.2-3.1 3.2-1.7 0-3.1-1.4-3.1-3.2 0-1.8 1.4-3.2 3.1-3.2 1.7 0 3.1 1.5 3.1 3.2zm-7 0c0 2.1 1.7 3.9 3.9 3.9 2.1 0 3.9-1.7 3.9-3.9s-1.7-3.9-3.9-3.9c-2.1 0-3.9 1.8-3.9 3.9z"/><path d="M34.5 44.4H12.7c0 .3-12.7-1.1-12.7-18.9C0 7.6 12.7 8.2 12.7 8.2l21.7-.1s2.6.2 2.6 3.6c0 4-2.6 4-2.6 4h-20s-6-.3-5.9 8.8v2.9s.7 8.9 6.4 9.3h19.6s2.5.1 2.5 3.9-2.5 3.8-2.5 3.8zM48.7 15.6h27.9c2 0 1.5 1.8 1.5 1.8v16.8c0 2.5-3.1 2.5-3.1 2.5H54.3c-4.6 0-4.6-4.2-4.6-4.2 0-4.6 4.6-4.2 4.6-4.2h19.1s2.4 0 2.4-3.7c0-3.9-2.4-4-2.4-4H50.1c-10.8.1-10.8 11.8-10.8 11.8C39.3 44.3 50 44.5 50 44.5h33c4.6 0 4.3-4.6 4.3-4.6V14.6c0-6.8-5.9-6.4-5.9-6.4H48.5s-2.9.1-2.9 3.7c.1 3.8 3.1 3.7 3.1 3.7zM94 11.2s.3-3.1 4.6-3.1 4.6 3 4.6 3v29.6s0 3.6-4.4 3.6c-4.6 0-4.7-3.6-4.7-3.6V11.2zM105.3 10c0-.2.2-.3.2-.3S109.4 8 115.9 8s14.2 2.1 14.4 12c0 0-.2 5.2-1.7 7 0 0-.1.2-.2.2-.6-.1-5.4-1.6-7.2-2.5-.2-.1-.1-.3-.1-.3s1.9-4.6-.7-7.9c-2.5-3.2-11.5-2.4-13.3-1.4 0 0-.2.1-.3-.2-.4-.4-1.5-4.2-1.5-4.9 0 0 0 .7 0 0zM136.1 3.1s0-3.1 4.7-3.1c4.5 0 4.6 3.1 4.6 3.1v38.1s-.1 3.2-4.6 3.2c-4.7 0-4.7-3.2-4.7-3.2V3.1zM146.9 10.6s-.1-.1.6-.5c0 0 2-1.5 10.8-1.9 8.9 0 17.5 3 17.5 16.9 0 0-.7 10.2-3.9 17.9 0 0-.2 1.1-1.5 1.1h-7.5s-1.8.4-1.1-1.2 4.8-11.2 4.8-16.6c0-5.2-1.5-11.2-11.8-11.2 0 0-3.5 0-6 1.2 0 0-1.1.6-1.3-.4-.3-.8-.8-4-.6-5.3 0 0-.2 1.3 0 0zM281 3.5s0-3.5 4.1-3.5c4 0 4.1 3.5 4.1 3.5v4.7h10.5s2.4.1 2.4 3.7-2.3 3.7-2.3 3.7h-10.6v25.1s-.1 3.7-4.1 3.7c-4 0-4.1-3.7-4.1-3.7v-25h-4.5s-2.3 0-2.3-3.8c0-3.7 2.2-3.8 2.2-3.8l4.6.1V3.5zM314.6 3.5s0-3.5 4.1-3.5c4 0 4.1 3.5 4.1 3.5v4.6h11.5s3.2-.1 3.2 3.8c0 3.7-3.1 3.8-3.1 3.8h-11.6v25.1s-.1 3.7-4.1 3.7c-4 0-4.1-3.7-4.1-3.7v-25h-4.5s-2.3-.1-2.3-3.8c0-3.7 2.2-3.8 2.2-3.8l4.6.1V3.5zM233.6 11.2s.3-3.1 4.6-3.1 4.6 3 4.6 3v29.6s0 3.6-4.4 3.6c-4.6 0-4.7-3.6-4.7-3.6V11.2zM244.9 10c0-.2.2-.3.2-.3S249 8 255.5 8s14.2 2.1 14.4 12c0 0-.2 5.2-1.7 7 0 0-.1.2-.2.2-.6-.1-5.4-1.6-7.2-2.5-.2-.1-.1-.3-.1-.3s1.9-4.6-.7-7.9c-2.5-3.2-11.5-2.4-13.3-1.4 0 0-.2.1-.3-.2-.4-.4-1.5-4.2-1.5-4.9 0 0 0 .7 0 0zM188.2 15.6h27.9c2 0 1.5 1.8 1.5 1.8v16.8c0 2.5-3.1 2.5-3.1 2.5h-20.7c-4.6 0-4.6-4.2-4.6-4.2 0-4.6 4.6-4.2 4.6-4.2H213s2.4 0 2.4-3.7c0-3.9-2.4-4-2.4-4h-23.3c-10.8.1-10.8 11.8-10.8 11.8 0 11.7 10.7 12 10.7 12h33c4.6 0 4.4-4.6 4.4-4.6V14.5c0-6.8-5.9-6.4-5.9-6.4h-32.9s-2.9.1-2.9 3.7c-.1 3.9 2.9 3.8 2.9 3.8z"/></svg>