<svg class="header__logo" viewBox="0 0 179 29" fill="none" xmlns="http://www.w3.org/2000/svg"><path d="M117.51 16.062c1.852-.65 5.453-2.41 6.409-6.058.524-1.985.161-3.878-.985-5.178-1.495-1.682-4.018-1.824-6.267-1.824-.333 0-.671.005-1 .005H106l-6.63 25.245-2.053-25.245h-6.854l-14.019 22.6-4.978-10.997 12.45-11.608H76.44l-9.887 9.613L69.06 3.07h-6.164l-6.683 25.45h6.164l3.033-11.549 4.836 11.55h10.456l3.21-5.296h8.951l.358 5.296h12.343l2.602-9.916h3.831c1.828 0 2.205.997 2.205 2.112v7.804h5.968V21.48c.005-1.76.255-4.582-2.66-5.418Zm-30.62 2.23 5.145-8.474.5 8.474h-5.644Zm28.591-5.159c-.911.606-2.004.606-2.592.606h-3.606l1.548-5.896h3.156c1.528 0 2.459 0 3.008.484.299.234.755.84.387 2.234a4.273 4.273 0 0 1-1.901 2.572ZM142.07 3.007l-2.577 9.819h-8.237l2.578-9.819h-6.164l-6.703 25.519h6.164l2.827-10.762h8.305l-2.827 10.762h6.164l6.703-25.519h-6.233ZM166.312 3.076l-3.94 15.02c-.637 2.436-1.127 3.301-1.759 3.971-1.19 1.32-2.856 1.99-4.944 1.99-1.656 0-2.768-.371-3.297-1.114-.735-1.022-.382-2.695.044-4.318l4.086-15.554h-6.164l-3.944 15.021c-.627 2.396-1.053 4.381-.328 6.342 1.406 3.965 5.904 4.557 8.462 4.557 5.326 0 11.7-2.626 13.636-10l4.179-15.925h-6.031v.01Z" fill="#000"/><path d="M176.598 7.643c-1.092 0-1.974-.944-1.974-2.113 0-1.168.882-2.112 1.974-2.112 1.093 0 1.975.944 1.975 2.112 0 1.169-.882 2.113-1.975 2.113Zm-2.401-2.113c0 1.394 1.073 2.523 2.401 2.523 1.328 0 2.401-1.13 2.401-2.523 0-1.393-1.073-2.518-2.401-2.518-1.328 0-2.401 1.125-2.401 2.518Zm1.872-.156v-.895h.583c.299 0 .613.049.613.435 0 .44-.343.465-.735.465h-.461v-.005Zm-.426 1.648h.426V5.785h.461l.779 1.237h.426l-.804-1.272c.427-.049.755-.293.755-.816 0-.587-.338-.86-.956-.86h-1.087v2.948Z" fill="#fff"/><path d="M28.125 28.545h5.047s.862-3.564 2.47-6.64c-3.274 1.061-5.988 3.487-7.517 6.64ZM4.572 23.152l-1.549 5.393H18.4l1.083-3.28c-.583.034-.975.048-1.617.048-.49 0-.995-.01-1.514-.029-5.983-.21-9.413-1.149-11.78-2.132ZM41.795 7.75c-.495.083-.96-.264-1.029-.797-.078-.518.245-1.017.755-1.1.49-.083.96.279 1.039.802.078.528-.26 1.012-.765 1.095Zm8.923-1.345c-2.372-.797-6.38-1.51-6.38-1.51-.98-2.509-5.154-2.025-5.154-2.025.23-1.897-4.474-5.129-5.816-.474-3.744.342-11.25-.738-13.975 2.758C5.582 6.112-.01 11.667 0 16.258c.005 3.921 3.832 5.33 5.86 6.073.745.259 1.485.484 2.215.68 2.024.508 4.66.904 8.31 1.036.524.02 1.029.03 1.514.03 6.193 0 9.295-1.536 9.476-4.68.133-2.298-1.675-3.28-3.028-3.692-.583-.176-1.538-.322-1.617-.332l.716-2.195h2.146l-.485 1.471c1.935.719 3.591 2.24 3.444 4.816-.176 3.105-2.533 4.998-6.889 5.638l-1.142 3.442h6.326c1.788-4.112 5.346-7.178 9.658-8.14.45-.666.94-1.277 1.47-1.776 2.89-2.655 6.565-3.017 9.201-3.647.902-.22 1.539-1.907 1.872-3.257-2.117 1.12-4.194.225-4.027-.582.372-1.784 3.263-2.019 4.478-.136-.005.01 2.259-4.24 1.22-4.602Z" fill="#000"/></svg>