<svg xmlns="http://www.w3.org/2000/svg" width="146" height="41" style="enable-background:new 0 0 146 41" xml:space="preserve"><g class="st0"><path d="M10.9 15.3c0-3.4.6-6.6 2.9-9.1C15.9 3.9 19 3 22.1 3c3.4 0 6.5.8 8.7 3.2 1.8 2 2.9 4.9 2.9 10.2v8c0 4.6-.8 7.6-2.8 9.9-2.7 3-6.7 3.3-8.8 3.3-3.2 0-8.5-1.2-10.2-6.8-.7-2.3-.9-5.2-.9-6.7v-8.8zm7.4 10.4c0 3.5.7 5.9 3.9 5.9 3.9 0 3.9-3.6 3.9-5.9V14.2c0-2.3 0-5.1-3.8-5.1-4 0-4 3.8-4 5.1v11.5zM40.7 3.7h7.4v26.9h14.5v6.2H40.7V3.7zM68.4 15.3c0-3.4.6-6.6 2.9-9.1C73.4 3.9 76.5 3 79.6 3c3.4 0 6.5.8 8.7 3.2 1.8 2 2.9 4.9 2.9 10.2v8c0 4.6-.8 7.6-2.8 9.9-2.7 3-6.7 3.3-8.8 3.3-3.2 0-8.5-1.2-10.2-6.8-.7-2.3-.9-5.2-.9-6.7v-8.8zm7.4 10.4c0 3.5.7 5.9 3.9 5.9 3.9 0 3.9-3.6 3.9-5.9V14.2c0-2.3 0-5.1-3.8-5.1-4 0-4 3.8-4 5.1v11.5zM102 3.7l3.4 15.6c.1.5.7 2.8.8 3.3l.6 3.2h.3c.1-.4.5-2.7.7-3.2.1-.5.7-2.9.8-3.4l3.6-15.6h6.2l3.6 15.5c0 .2 1.4 6.4 1.5 6.7h.2c.3-1.8 1.3-6.3 1.3-6.3l3.5-15.8h6.5l-7.8 33h-6.5l-4-16.2c-.6-2.4-1.1-5-1.3-6.1h-.2c-.2 1-1.1 5.3-1.3 6.2L110 36.7h-6.5l-8-33h6.5z"/></g></svg>